


<svg width="0" height="0" >
    <symbol xmlns="http://www.w3.org/2000/svg" fill="currentColor" viewBox="0 0 16 16" id="person">
    <path d="M8 8a3 3 0 1 0 0-6 3 3 0 0 0 0 6m2-3a2 2 0 1 1-4 0 2 2 0 0 1 4 0m4 8c0 1-1 1-1 1H3s-1 0-1-1 1-4 6-4 6 3 6 4m-1-.004c-.001-.246-.154-.986-.832-1.664C11.516 10.68 10.289 10 8 10s-3.516.68-4.168 1.332c-.678.678-.83 1.418-.832 1.664z"></path>
  </symbol>
  <symbol xmlns="http://www.w3.org/2000/svg" fill="currentColor" viewBox="0 0 16 16" id="house">
    <path d="M8.707 1.5a1 1 0 0 0-1.414 0L.646 8.146a.5.5 0 0 0 .708.708L2 8.207V13.5A1.5 1.5 0 0 0 3.5 15h9a1.5 1.5 0 0 0 1.5-1.5V8.207l.646.647a.5.5 0 0 0 .708-.708L13 5.793V2.5a.5.5 0 0 0-.5-.5h-1a.5.5 0 0 0-.5.5v1.293zM13 7.207V13.5a.5.5 0 0 1-.5.5h-9a.5.5 0 0 1-.5-.5V7.207l5-5z"></path>
  </symbol>
  <symbol xmlns="http://www.w3.org/2000/svg" fill="currentColor" viewBox="0 0 16 16" id="calendar-day">
    <path d="M4.684 11.523v-2.3h2.261v-.61H4.684V6.801h2.464v-.61H4v5.332zm3.296 0h.676V8.98c0-.554.227-1.007.953-1.007.125 0 .258.004.329.015v-.613a2 2 0 0 0-.254-.02c-.582 0-.891.32-1.012.567h-.02v-.504H7.98zm2.805-5.093c0 .238.192.425.43.425a.428.428 0 1 0 0-.855.426.426 0 0 0-.43.43m.094 5.093h.672V7.418h-.672z"></path>
    <path d="M3.5 0a.5.5 0 0 1 .5.5V1h8V.5a.5.5 0 0 1 1 0V1h1a2 2 0 0 1 2 2v11a2 2 0 0 1-2 2H2a2 2 0 0 1-2-2V3a2 2 0 0 1 2-2h1V.5a.5.5 0 0 1 .5-.5M1 4v10a1 1 0 0 0 1 1h12a1 1 0 0 0 1-1V4z"></path>
  </symbol>
    <symbol xmlns="http://www.w3.org/2000/svg" fill="currentColor" viewBox="0 0 16 16" id="list-check">
    <path fill-rule="evenodd" d="M5 11.5a.5.5 0 0 1 .5-.5h9a.5.5 0 0 1 0 1h-9a.5.5 0 0 1-.5-.5m0-4a.5.5 0 0 1 .5-.5h9a.5.5 0 0 1 0 1h-9a.5.5 0 0 1-.5-.5m0-4a.5.5 0 0 1 .5-.5h9a.5.5 0 0 1 0 1h-9a.5.5 0 0 1-.5-.5M3.854 2.146a.5.5 0 0 1 0 .708l-1.5 1.5a.5.5 0 0 1-.708 0l-.5-.5a.5.5 0 1 1 .708-.708L2 3.293l1.146-1.147a.5.5 0 0 1 .708 0m0 4a.5.5 0 0 1 0 .708l-1.5 1.5a.5.5 0 0 1-.708 0l-.5-.5a.5.5 0 1 1 .708-.708L2 7.293l1.146-1.147a.5.5 0 0 1 .708 0m0 4a.5.5 0 0 1 0 .708l-1.5 1.5a.5.5 0 0 1-.708 0l-.5-.5a.5.5 0 0 1 .708-.708l.146.147 1.146-1.147a.5.5 0 0 1 .708 0"></path>
  </symbol>
    <symbol xmlns="http://www.w3.org/2000/svg" fill="currentColor" viewBox="0 0 16 16" id="funnel">
    <path d="M1.5 1.5A.5.5 0 0 1 2 1h12a.5.5 0 0 1 .5.5v2a.5.5 0 0 1-.128.334L10 8.692V13.5a.5.5 0 0 1-.342.474l-3 1A.5.5 0 0 1 6 14.5V8.692L1.628 3.834A.5.5 0 0 1 1.5 3.5zm1 .5v1.308l4.372 4.858A.5.5 0 0 1 7 8.5v5.306l2-.666V8.5a.5.5 0 0 1 .128-.334L13.5 3.308V2z"></path>
  </symbol>
    <symbol xmlns="http://www.w3.org/2000/svg" id="filter (1)" viewBox="0 0 48 48">
    <path d="M4 10h7.09a6 6 0 0 0 11.82 0H44a1 1 0 0 0 0-2H22.91A6 6 0 0 0 11.09 8H4a1 1 0 0 0 0 2zM17 5a4 4 0 1 1-4 4A4 4 0 0 1 17 5zM44 23H36.91a6 6 0 0 0-11.82 0H4a1 1 0 0 0 0 2H25.09a6 6 0 0 0 11.82 0H44a1 1 0 0 0 0-2zM31 28a4 4 0 1 1 4-4A4 4 0 0 1 31 28zM44 38H22.91a6 6 0 0 0-11.82 0H4a1 1 0 0 0 0 2h7.09a6 6 0 0 0 11.82 0H44a1 1 0 0 0 0-2zM17 43a4 4 0 1 1 4-4A4 4 0 0 1 17 43z"></path>
  </symbol>
  <symbol class="icon-svg" xmlns="http://www.w3.org/2000/svg" fill="currentColor" viewBox="0 0 16 16" id="setting">
    <path d="M8 4.754a3.246 3.246 0 1 0 0 6.492 3.246 3.246 0 0 0 0-6.492M5.754 8a2.246 2.246 0 1 1 4.492 0 2.246 2.246 0 0 1-4.492 0"></path>
    <path d="M9.796 1.343c-.527-1.79-3.065-1.79-3.592 0l-.094.319a.873.873 0 0 1-1.255.52l-.292-.16c-1.64-.892-3.433.902-2.54 2.541l.159.292a.873.873 0 0 1-.52 1.255l-.319.094c-1.79.527-1.79 3.065 0 3.592l.319.094a.873.873 0 0 1 .52 1.255l-.16.292c-.892 1.64.901 3.434 2.541 2.54l.292-.159a.873.873 0 0 1 1.255.52l.094.319c.527 1.79 3.065 1.79 3.592 0l.094-.319a.873.873 0 0 1 1.255-.52l.292.16c1.64.893 3.434-.902 2.54-2.541l-.159-.292a.873.873 0 0 1 .52-1.255l.319-.094c1.79-.527 1.79-3.065 0-3.592l-.319-.094a.873.873 0 0 1-.52-1.255l.16-.292c.893-1.64-.902-3.433-2.541-2.54l-.292.159a.873.873 0 0 1-1.255-.52zm-2.633.283c.246-.835 1.428-.835 1.674 0l.094.319a1.873 1.873 0 0 0 2.693 1.115l.291-.16c.764-.415 1.6.42 1.184 1.185l-.159.292a1.873 1.873 0 0 0 1.116 2.692l.318.094c.835.246.835 1.428 0 1.674l-.319.094a1.873 1.873 0 0 0-1.115 2.693l.16.291c.415.764-.42 1.6-1.185 1.184l-.291-.159a1.873 1.873 0 0 0-2.693 1.116l-.094.318c-.246.835-1.428.835-1.674 0l-.094-.319a1.873 1.873 0 0 0-2.692-1.115l-.292.16c-.764.415-1.6-.42-1.184-1.185l.159-.291A1.873 1.873 0 0 0 1.945 8.93l-.319-.094c-.835-.246-.835-1.428 0-1.674l.319-.094A1.873 1.873 0 0 0 3.06 4.377l-.16-.292c-.415-.764.42-1.6 1.185-1.184l.292.159a1.873 1.873 0 0 0 2.692-1.115z"></path>
  </symbol>
  <symbol class="icon-svg" xmlns="http://www.w3.org/2000/svg" fill="currentColor" viewBox="0 0 16 16" id="logout">
    <path fill-rule="evenodd" d="M10 3.5a.5.5 0 0 0-.5-.5h-8a.5.5 0 0 0-.5.5v9a.5.5 0 0 0 .5.5h8a.5.5 0 0 0 .5-.5v-2a.5.5 0 0 1 1 0v2A1.5 1.5 0 0 1 9.5 14h-8A1.5 1.5 0 0 1 0 12.5v-9A1.5 1.5 0 0 1 1.5 2h8A1.5 1.5 0 0 1 11 3.5v2a.5.5 0 0 1-1 0z"></path>
    <path fill-rule="evenodd" d="M4.146 8.354a.5.5 0 0 1 0-.708l3-3a.5.5 0 1 1 .708.708L5.707 7.5H14.5a.5.5 0 0 1 0 1H5.707l2.147 2.146a.5.5 0 0 1-.708.708z"></path>
  </symbol>
  <symbol class="icon-svg" xmlns="http://www.w3.org/2000/svg" fill="currentColor" viewBox="0 0 16 16" id="user (4)">
    <path d="M8 8a3 3 0 1 0 0-6 3 3 0 0 0 0 6m2-3a2 2 0 1 1-4 0 2 2 0 0 1 4 0m4 8c0 1-1 1-1 1H3s-1 0-1-1 1-4 6-4 6 3 6 4m-1-.004c-.001-.246-.154-.986-.832-1.664C11.516 10.68 10.289 10 8 10s-3.516.68-4.168 1.332c-.678.678-.83 1.418-.832 1.664z"></path>
  </symbol>
  <symbol  class="icon-svg" xmlns="http://www.w3.org/2000/svg" id="settings" viewBox="0 0 24 24">
    <path fill="none" d="M0 0h24v24H0V0z"></path>
    <path d="M19.43 12.98c.04-.32.07-.64.07-.98s-.03-.66-.07-.98l2.11-1.65c.19-.15.24-.42.12-.64l-2-3.46c-.12-.22-.39-.3-.61-.22l-2.49 1c-.52-.4-1.08-.73-1.69-.98l-.38-2.65C14.46 2.18 14.25 2 14 2h-4c-.25 0-.46.18-.49.42l-.38 2.65c-.61.25-1.17.59-1.69.98l-2.49-1c-.23-.09-.49 0-.61.22l-2 3.46c-.13.22-.07.49.12.64l2.11 1.65c-.04.32-.07.65-.07.98s.03.66.07.98l-2.11 1.65c-.19.15-.24.42-.12.64l2 3.46c.12.22.39.3.61.22l2.49-1c.52.4 1.08.73 1.69.98l.38 2.65c.03.24.24.42.49.42h4c.25 0 .46-.18.49-.42l.38-2.65c.61-.25 1.17-.59 1.69-.98l2.49 1c.23.09.49 0 .61-.22l2-3.46c.12-.22.07-.49-.12-.64l-2.11-1.65zM12 15.5c-1.93 0-3.5-1.57-3.5-3.5s1.57-3.5 3.5-3.5 3.5 1.57 3.5 3.5-1.57 3.5-3.5 3.5z"></path>
  </symbol>
  <symbol xmlns="http://www.w3.org/2000/svg" fill="currentColor" viewBox="0 0 16 16" id="dashboard">
    <path d="M8 4a.5.5 0 0 1 .5.5V6a.5.5 0 0 1-1 0V4.5A.5.5 0 0 1 8 4M3.732 5.732a.5.5 0 0 1 .707 0l.915.914a.5.5 0 1 1-.708.708l-.914-.915a.5.5 0 0 1 0-.707M2 10a.5.5 0 0 1 .5-.5h1.586a.5.5 0 0 1 0 1H2.5A.5.5 0 0 1 2 10m9.5 0a.5.5 0 0 1 .5-.5h1.5a.5.5 0 0 1 0 1H12a.5.5 0 0 1-.5-.5m.754-4.246a.39.39 0 0 0-.527-.02L7.547 9.31a.91.91 0 1 0 1.302 1.258l3.434-4.297a.39.39 0 0 0-.029-.518z"></path>
    <path fill-rule="evenodd" d="M0 10a8 8 0 1 1 15.547 2.661c-.442 1.253-1.845 1.602-2.932 1.25C11.309 13.488 9.475 13 8 13c-1.474 0-3.31.488-4.615.911-1.087.352-2.49.003-2.932-1.25A8 8 0 0 1 0 10m8-7a7 7 0 0 0-6.603 9.329c.203.575.923.876 1.68.63C4.397 12.533 6.358 12 8 12s3.604.532 4.923.96c.757.245 1.477-.056 1.68-.631A7 7 0 0 0 8 3"></path>
  </symbol>
  <symbol class="icon-svg" xmlns="http://www.w3.org/2000/svg" fill="currentColor" viewBox="0 0 16 16" id="contact">
    <path d="M0 4a2 2 0 0 1 2-2h12a2 2 0 0 1 2 2v4.5a.5.5 0 0 1-1 0V5.383l-7 4.2-1.326-.795-5.64 3.47A1 1 0 0 0 2 13h5.5a.5.5 0 0 1 0 1H2a2 2 0 0 1-2-1.99zm1 7.105 4.708-2.897L1 5.383zM1 4v.217l7 4.2 7-4.2V4a1 1 0 0 0-1-1H2a1 1 0 0 0-1 1"></path>
    <path d="M12.5 16a3.5 3.5 0 1 0 0-7 3.5 3.5 0 0 0 0 7m.354-5.354 1.25 1.25a.5.5 0 0 1-.708.708L13 12.207V14a.5.5 0 0 1-1 0v-1.717l-.28.305a.5.5 0 0 1-.737-.676l1.149-1.25a.5.5 0 0 1 .722-.016"></path>
  </symbol>
  <symbol class="icon-svg" xmlns="http://www.w3.org/2000/svg" fill="currentColor" viewBox="0 0 16 16" id="dark">
    <path d="M6 .278a.77.77 0 0 1 .08.858 7.2 7.2 0 0 0-.878 3.46c0 4.021 3.278 7.277 7.318 7.277q.792-.001 1.533-.16a.79.79 0 0 1 .81.316.73.73 0 0 1-.031.893A8.35 8.35 0 0 1 8.344 16C3.734 16 0 12.286 0 7.71 0 4.266 2.114 1.312 5.124.06A.75.75 0 0 1 6 .278M4.858 1.311A7.27 7.27 0 0 0 1.025 7.71c0 4.02 3.279 7.276 7.319 7.276a7.32 7.32 0 0 0 5.205-2.162q-.506.063-1.029.063c-4.61 0-8.343-3.714-8.343-8.29 0-1.167.242-2.278.681-3.286"></path>
  </symbol>
  <symbol class="icon-svg" xmlns="http://www.w3.org/2000/svg" fill="currentColor" viewBox="0 0 16 16" id="light">
    <path d="M8 11a3 3 0 1 1 0-6 3 3 0 0 1 0 6m0 1a4 4 0 1 0 0-8 4 4 0 0 0 0 8M8 0a.5.5 0 0 1 .5.5v2a.5.5 0 0 1-1 0v-2A.5.5 0 0 1 8 0m0 13a.5.5 0 0 1 .5.5v2a.5.5 0 0 1-1 0v-2A.5.5 0 0 1 8 13m8-5a.5.5 0 0 1-.5.5h-2a.5.5 0 0 1 0-1h2a.5.5 0 0 1 .5.5M3 8a.5.5 0 0 1-.5.5h-2a.5.5 0 0 1 0-1h2A.5.5 0 0 1 3 8m10.657-5.657a.5.5 0 0 1 0 .707l-1.414 1.415a.5.5 0 1 1-.707-.708l1.414-1.414a.5.5 0 0 1 .707 0m-9.193 9.193a.5.5 0 0 1 0 .707L3.05 13.657a.5.5 0 0 1-.707-.707l1.414-1.414a.5.5 0 0 1 .707 0m9.193 2.121a.5.5 0 0 1-.707 0l-1.414-1.414a.5.5 0 0 1 .707-.707l1.414 1.414a.5.5 0 0 1 0 .707M4.464 4.465a.5.5 0 0 1-.707 0L2.343 3.05a.5.5 0 1 1 .707-.707l1.414 1.414a.5.5 0 0 1 0 .708"></path>
  </symbol>
  <symbol class="icon-svg" xmlns="http://www.w3.org/2000/svg" fill="currentColor" viewBox="0 0 16 16" id="signup">
    <path d="M5 8a2 2 0 1 0 0-4 2 2 0 0 0 0 4m4-2.5a.5.5 0 0 1 .5-.5h4a.5.5 0 0 1 0 1h-4a.5.5 0 0 1-.5-.5M9 8a.5.5 0 0 1 .5-.5h4a.5.5 0 0 1 0 1h-4A.5.5 0 0 1 9 8m1 2.5a.5.5 0 0 1 .5-.5h3a.5.5 0 0 1 0 1h-3a.5.5 0 0 1-.5-.5"></path>
    <path d="M2 2a2 2 0 0 0-2 2v8a2 2 0 0 0 2 2h12a2 2 0 0 0 2-2V4a2 2 0 0 0-2-2zM1 4a1 1 0 0 1 1-1h12a1 1 0 0 1 1 1v8a1 1 0 0 1-1 1H8.96q.04-.245.04-.5C9 10.567 7.21 9 5 9c-2.086 0-3.8 1.398-3.984 3.181A1 1 0 0 1 1 12z"></path>
  </symbol>
  <symbol class="icon-svg" xmlns="http://www.w3.org/2000/svg" fill="currentColor" viewBox="0 0 16 16" id="bookmark">
    <path d="M2 2a2 2 0 0 1 2-2h8a2 2 0 0 1 2 2v13.5a.5.5 0 0 1-.777.416L8 13.101l-5.223 2.815A.5.5 0 0 1 2 15.5zm2-1a1 1 0 0 0-1 1v12.566l4.723-2.482a.5.5 0 0 1 .554 0L13 14.566V2a1 1 0 0 0-1-1z"></path>
  </symbol>
  <symbol class="icon-svg" xmlns="http://www.w3.org/2000/svg" fill="currentColor" viewBox="0 0 16 16" id="menu">
    <path fill-rule="evenodd" d="M2.5 12a.5.5 0 0 1 .5-.5h10a.5.5 0 0 1 0 1H3a.5.5 0 0 1-.5-.5m0-4a.5.5 0 0 1 .5-.5h10a.5.5 0 0 1 0 1H3a.5.5 0 0 1-.5-.5m0-4a.5.5 0 0 1 .5-.5h10a.5.5 0 0 1 0 1H3a.5.5 0 0 1-.5-.5"></path>
  </symbol>
  <symbol class="icon-svg" xmlns="http://www.w3.org/2000/svg" fill="currentColor" viewBox="0 0 16 16" id="profile">
    <path d="M6 8a3 3 0 1 0 0-6 3 3 0 0 0 0 6m-5 6s-1 0-1-1 1-4 6-4 6 3 6 4-1 1-1 1zM11 3.5a.5.5 0 0 1 .5-.5h4a.5.5 0 0 1 0 1h-4a.5.5 0 0 1-.5-.5m.5 2.5a.5.5 0 0 0 0 1h4a.5.5 0 0 0 0-1zm2 3a.5.5 0 0 0 0 1h2a.5.5 0 0 0 0-1zm0 3a.5.5 0 0 0 0 1h2a.5.5 0 0 0 0-1z"></path>
  </symbol>
  <symbol class="icon-svg" xmlns="http://www.w3.org/2000/svg" fill="currentColor" viewBox="0 0 16 16" id="message">
    <path d="M14 1a1 1 0 0 1 1 1v8a1 1 0 0 1-1 1h-2.5a2 2 0 0 0-1.6.8L8 14.333 6.1 11.8a2 2 0 0 0-1.6-.8H2a1 1 0 0 1-1-1V2a1 1 0 0 1 1-1zM2 0a2 2 0 0 0-2 2v8a2 2 0 0 0 2 2h2.5a1 1 0 0 1 .8.4l1.9 2.533a1 1 0 0 0 1.6 0l1.9-2.533a1 1 0 0 1 .8-.4H14a2 2 0 0 0 2-2V2a2 2 0 0 0-2-2z"></path>
    <path d="M5 6a1 1 0 1 1-2 0 1 1 0 0 1 2 0m4 0a1 1 0 1 1-2 0 1 1 0 0 1 2 0m4 0a1 1 0 1 1-2 0 1 1 0 0 1 2 0"></path>
  </symbol>
    <symbol class="icon-svg" xmlns="http://www.w3.org/2000/svg" fill="currentColor" viewBox="0 0 16 16" id="search">
    <path d="M11.742 10.344a6.5 6.5 0 1 0-1.397 1.398h-.001q.044.06.098.115l3.85 3.85a1 1 0 0 0 1.415-1.414l-3.85-3.85a1 1 0 0 0-.115-.1zM12 6.5a5.5 5.5 0 1 1-11 0 5.5 5.5 0 0 1 11 0"></path>
  </symbol>
   <symbol class="icon-svg" xmlns="http://www.w3.org/2000/svg" fill="currentColor" viewBox="0 0 16 16" id="login">
    <path fill-rule="evenodd" d="M6 3.5a.5.5 0 0 1 .5-.5h8a.5.5 0 0 1 .5.5v9a.5.5 0 0 1-.5.5h-8a.5.5 0 0 1-.5-.5v-2a.5.5 0 0 0-1 0v2A1.5 1.5 0 0 0 6.5 14h8a1.5 1.5 0 0 0 1.5-1.5v-9A1.5 1.5 0 0 0 14.5 2h-8A1.5 1.5 0 0 0 5 3.5v2a.5.5 0 0 0 1 0z"></path>
    <path fill-rule="evenodd" d="M11.854 8.354a.5.5 0 0 0 0-.708l-3-3a.5.5 0 1 0-.708.708L10.293 7.5H1.5a.5.5 0 0 0 0 1h8.793l-2.147 2.146a.5.5 0 0 0 .708.708z"></path>
  </symbol>
    <symbol class="icon-svg" xmlns="http://www.w3.org/2000/svg" fill="currentColor" viewBox="0 0 16 16" id="mail">
    <path d="M0 4a2 2 0 0 1 2-2h12a2 2 0 0 1 2 2v8a2 2 0 0 1-2 2H2a2 2 0 0 1-2-2zm2-1a1 1 0 0 0-1 1v.217l7 4.2 7-4.2V4a1 1 0 0 0-1-1zm13 2.383-4.708 2.825L15 11.105zm-.034 6.876-5.64-3.471L8 9.583l-1.326-.795-5.64 3.47A1 1 0 0 0 2 13h12a1 1 0 0 0 .966-.741M1 11.105l4.708-2.897L1 5.383z"></path>
  </symbol>
    <symbol xmlns="http://www.w3.org/2000/svg" fill="currentColor" viewBox="0 0 16 16" id="x" transform="scale(0.7)">
    <path d="M2.146 2.854a.5.5 0 1 1 .708-.708L8 7.293l5.146-5.147a.5.5 0 0 1 .708.708L8.707 8l5.147 5.146a.5.5 0 0 1-.708.708L8 8.707l-5.146 5.147a.5.5 0 0 1-.708-.708L7.293 8z"></path>
</symbol>
  <symbol xmlns="http://www.w3.org/2000/svg" fill="currentColor" viewBox="0 0 16 16" id="theme">
    <path d="M7 8a3.5 3.5 0 0 1 3.5 3.555.5.5 0 0 0 .625.492A1.503 1.503 0 0 1 13 13.5a1.5 1.5 0 0 1-1.5 1.5H3a2 2 0 1 1 .1-3.998.5.5 0 0 0 .509-.375A3.5 3.5 0 0 1 7 8m4.473 3a4.5 4.5 0 0 0-8.72-.99A3 3 0 0 0 3 16h8.5a2.5 2.5 0 0 0 0-5z"></path>
    <path d="M11.286 1.778a.5.5 0 0 0-.565-.755 4.595 4.595 0 0 0-3.18 5.003 5.5 5.5 0 0 1 1.055.209A3.6 3.6 0 0 1 9.83 2.617a4.593 4.593 0 0 0 4.31 5.744 3.58 3.58 0 0 1-2.241.634q.244.477.394 1a4.59 4.59 0 0 0 3.624-2.04.5.5 0 0 0-.565-.755 3.593 3.593 0 0 1-4.065-5.422z"></path>
  </symbol>
   <symbol xmlns="http://www.w3.org/2000/svg" id="teacher" viewBox="0 0 64 64">
    <path fill="#222" d="M12.25 45a8.5 8.5 0 1 1 8.5-8.5 8.51 8.51 0 0 1-8.5 8.5Zm0-14a5.5 5.5 0 1 0 5.5 5.5 5.51 5.51 0 0 0-5.5-5.5Z"></path>
    <path fill="#222" d="M19.75 57h-15a1.5 1.5 0 0 1-1.5-1.5v-7a6.51 6.51 0 0 1 6.5-6.5h5a6.51 6.51 0 0 1 6.5 6.5v7a1.5 1.5 0 0 1-1.5 1.5Zm-13.5-3h12v-5.5a3.5 3.5 0 0 0-3.5-3.5h-5a3.5 3.5 0 0 0-3.5 3.5Z"></path>
    <path fill="#222" d="M20.25 51a1.5 1.5 0 0 1-1.13-2.49l14-16a1.5 1.5 0 1 1 2.26 2l-14 16a1.49 1.49 0 0 1-1.13.49zm39-41h-49a1.5 1.5 0 0 1 0-3h49a1.5 1.5 0 0 1 0 3zm0 31h-21a1.5 1.5 0 0 1 0-3h21a1.5 1.5 0 0 1 0 3z"></path>
    <path fill="#222" d="M55.25 41a1.5 1.5 0 0 1-1.5-1.5v-31a1.5 1.5 0 0 1 3 0v31a1.5 1.5 0 0 1-1.5 1.5zm-41-17a1.5 1.5 0 0 1-1.5-1.5v-14a1.5 1.5 0 0 1 3 0v14a1.5 1.5 0 0 1-1.5 1.5zm22-5h-11a1.5 1.5 0 0 1 0-3h11a1.5 1.5 0 0 1 0 3zm7 8h-18a1.5 1.5 0 0 1 0-3h18a1.5 1.5 0 0 1 0 3z"></path>
  </symbol>
  <symbol fill="#000000" version="1.1" id="class" xmlns="http://www.w3.org/2000/svg" xmlns:xlink="http://www.w3.org/1999/xlink" xml:space="preserve" viewBox="0 0 32.286 32.286">
    <g>
      <g>
        <path d="M31.747,2.301H11.412v13.617h20.335V2.301z M30.869,15.042H12.287V3.177H30.87L30.869,15.042L30.869,15.042z"></path>
        <rect x="26.784" y="13.167" width="3.526" height="1.264"></rect>
        <circle cx="5.264" cy="8.782" r="1.67"></circle>
        <polygon points="9.68,19.352 9.68,14.683 10.533,14.683 10.533,13.316 7.331,13.316 7.262,10.955 5.909,10.703 5.293,11.441 
			4.656,10.703 3.183,10.957 3.183,13.316 0,13.316 0,14.683 0.853,14.683 0.853,19.352 		"></polygon>
        <circle cx="25.002" cy="22.162" r="1.03"></circle>
        <circle cx="29.729" cy="22.162" r="1.03"></circle>
        <circle cx="19.77" cy="22.162" r="1.03"></circle>
        <circle cx="14.187" cy="22.161" r="1.029"></circle>
        <circle cx="8.799" cy="22.064" r="1.03"></circle>
        <circle cx="3.438" cy="22.064" r="1.029"></circle>
        <circle cx="25.002" cy="25.383" r="1.482"></circle>
        <polygon points="25.573,27.086 25.027,27.743 24.462,27.086 23.154,27.335 23.154,29.942 26.852,29.942 26.792,27.356 		"></polygon>
        <circle cx="19.63" cy="25.382" r="1.481"></circle>
        <polygon points="20.203,27.086 19.657,27.743 19.092,27.086 17.783,27.356 17.783,29.942 21.48,29.942 21.406,27.356 		"></polygon>
        <circle cx="22.242" cy="23.315" r="1.084"></circle>
        <path d="M23.592,26.584c-0.193-0.365-0.326-0.762-0.326-1.203c0-0.29,0.076-0.561,0.166-0.821h-0.106h-0.265h-0.401l-0.399,0.48
			l-0.412-0.48h-0.426h-0.236c0.109,0.252,0.172,0.53,0.172,0.821c0,0.477-0.168,0.913-0.443,1.27h2.678V26.584z"></path>
        <circle cx="14.187" cy="25.383" r="1.482"></circle>
        <polygon points="14.759,27.086 14.213,27.743 13.648,27.086 12.339,27.356 12.339,29.942 16.036,29.942 15.961,27.356 		"></polygon>
        <circle cx="16.797" cy="23.315" r="1.084"></circle>
        <path d="M18.146,26.584c-0.191-0.365-0.328-0.762-0.328-1.203c0-0.29,0.08-0.561,0.168-0.821H17.88h-0.265h-0.401l-0.399,0.48
			l-0.413-0.48h-0.425H15.74c0.11,0.252,0.172,0.53,0.172,0.821c0,0.477-0.167,0.913-0.443,1.27h2.677V26.584z"></path>
        <circle cx="30.438" cy="25.314" r="1.482"></circle>
        <polygon points="32.211,27.295 31.009,27.018 30.463,27.674 29.898,27.018 28.589,27.315 28.589,29.875 32.286,29.875 		"></polygon>
        <circle cx="27.602" cy="23.246" r="1.085"></circle>
        <path d="M28.953,26.516c-0.191-0.363-0.329-0.761-0.329-1.201c0-0.291,0.079-0.561,0.167-0.822h-0.105H28.42h-0.4l-0.397,0.479
			l-0.414-0.479h-0.424h-0.236c0.109,0.254,0.171,0.529,0.171,0.82c0,0.478-0.167,0.913-0.441,1.271h2.679L28.953,26.516z"></path>
        <circle cx="8.882" cy="25.424" r="1.482"></circle>
        <polygon points="9.456,27.127 8.909,27.784 8.344,27.127 7.035,27.356 7.035,29.985 10.731,29.985 10.656,27.356 		"></polygon>
        <circle cx="11.493" cy="23.356" r="1.084"></circle>
        <path d="M12.843,26.626c-0.191-0.365-0.327-0.761-0.327-1.201c0-0.292,0.078-0.562,0.167-0.823h-0.106h-0.265h-0.401l-0.399,0.48
			l-0.414-0.48h-0.424h-0.237c0.109,0.254,0.173,0.53,0.173,0.822c0,0.477-0.168,0.913-0.443,1.27h2.677L12.843,26.626z"></path>
        <circle cx="3.438" cy="25.425" r="1.481"></circle>
        <polygon points="4.01,27.127 3.464,27.784 2.899,27.127 1.555,27.356 1.591,29.985 5.287,29.985 5.21,27.356 		"></polygon>
        <circle cx="6.048" cy="23.356" r="1.084"></circle>
        <path d="M7.399,26.626c-0.193-0.365-0.328-0.761-0.328-1.201c0-0.292,0.079-0.562,0.167-0.823H7.132H6.867H6.466l-0.398,0.48
			l-0.414-0.48H5.229H4.994c0.108,0.254,0.172,0.53,0.172,0.822c0,0.477-0.168,0.913-0.444,1.27H7.4L7.399,26.626z"></path>
      </g>
    </g>
  </symbol>
  <symbol fill="#000000" version="1.1" id="analysis" xmlns="http://www.w3.org/2000/svg" xmlns:xlink="http://www.w3.org/1999/xlink" xml:space="preserve" viewBox="0 0 27.32 27.32">
    <g>
      <g>
        <path d="M1.29,25.669V25.64l4.825-9.713c0.116,0.032,0.237,0.058,0.364,0.058c0.193,0,0.375-0.045,0.54-0.118l4.248,4.521
			c-0.13,0.203-0.208,0.443-0.208,0.705c0,0.725,0.588,1.312,1.313,1.312s1.313-0.589,1.313-1.312c0-0.403-0.185-0.759-0.47-1
			l2.58-5.314h0.462v-0.16h-0.384l2.264-4.664c0.086,0.018,0.174,0.026,0.266,0.026c0.26,0,0.5-0.076,0.703-0.206l4.549,4.29
			c-0.105,0.188-0.17,0.401-0.17,0.634c0,0.725,0.588,1.312,1.312,1.312s1.312-0.588,1.312-1.312c0-0.725-0.588-1.313-1.312-1.313
			c-0.259,0-0.499,0.077-0.701,0.206l-4.55-4.289c0.104-0.189,0.169-0.402,0.169-0.633c0-0.727-0.587-1.315-1.312-1.315
			c-0.698,0-1.264,0.547-1.305,1.233h-0.021v0.161h0.021c0.021,0.368,0.195,0.694,0.461,0.919l-4.921,10.141
			c-0.085-0.019-0.175-0.027-0.266-0.027c-0.23,0-0.444,0.064-0.632,0.169L7.523,15.46c0.146-0.191,0.237-0.426,0.258-0.682h0.544
			v-0.16H7.787c-0.03-0.701-0.601-1.26-1.308-1.26c-0.708,0-1.279,0.559-1.308,1.26h-0.15v0.16h0.156
			c0.027,0.322,0.163,0.611,0.378,0.825l-2.687,5.407H2.377v0.162h0.411L1.29,24.189V0.364H0v26.592h27.32v-1.287H1.29z"></path>
        <rect x="26.168" y="2.581" width="0.323" height="0.16"></rect>
        <rect x="18.238" y="2.581" width="0.66" height="0.16"></rect>
        <rect x="3.699" y="2.581" width="0.661" height="0.16"></rect>
        <rect x="19.561" y="2.581" width="0.66" height="0.16"></rect>
        <rect x="5.021" y="2.581" width="0.661" height="0.16"></rect>
        <rect x="14.273" y="2.581" width="0.66" height="0.16"></rect>
        <rect x="12.951" y="2.581" width="0.661" height="0.16"></rect>
        <rect x="16.916" y="2.581" width="0.661" height="0.16"></rect>
        <rect x="15.596" y="2.581" width="0.66" height="0.16"></rect>
        <rect x="2.376" y="2.581" width="0.662" height="0.16"></rect>
        <rect x="8.985" y="2.581" width="0.661" height="0.16"></rect>
        <rect x="24.846" y="2.581" width="0.661" height="0.16"></rect>
        <rect x="20.881" y="2.581" width="0.661" height="0.16"></rect>
        <rect x="11.628" y="2.581" width="0.662" height="0.16"></rect>
        <rect x="10.308" y="2.581" width="0.661" height="0.16"></rect>
        <rect x="22.203" y="2.581" width="0.66" height="0.16"></rect>
        <rect x="6.343" y="2.581" width="0.66" height="0.16"></rect>
        <rect x="23.525" y="2.581" width="0.66" height="0.16"></rect>
        <rect x="7.664" y="2.581" width="0.661" height="0.16"></rect>
        <rect x="1.394" y="2.581" width="0.323" height="0.16"></rect>
        <rect x="26.327" y="8.587" width="0.321" height="0.161"></rect>
        <rect x="23.684" y="8.587" width="0.662" height="0.161"></rect>
        <rect x="22.361" y="8.587" width="0.66" height="0.161"></rect>
        <rect x="7.823" y="8.587" width="0.661" height="0.161"></rect>
        <rect x="6.501" y="8.587" width="0.661" height="0.161"></rect>
        <rect x="10.466" y="8.587" width="0.66" height="0.161"></rect>
        <rect x="21.04" y="8.587" width="0.662" height="0.161"></rect>
        <rect x="11.787" y="8.587" width="0.662" height="0.161"></rect>
        <rect x="25.005" y="8.587" width="0.661" height="0.161"></rect>
        <rect x="9.144" y="8.587" width="0.661" height="0.161"></rect>
        <rect x="15.752" y="8.587" width="0.661" height="0.161"></rect>
        <rect x="2.535" y="8.587" width="0.662" height="0.161"></rect>
        <rect x="14.432" y="8.587" width="0.661" height="0.161"></rect>
        <rect x="13.11" y="8.587" width="0.661" height="0.161"></rect>
        <rect x="3.857" y="8.587" width="0.661" height="0.161"></rect>
        <rect x="19.718" y="8.587" width="0.661" height="0.161"></rect>
        <rect x="5.179" y="8.587" width="0.661" height="0.161"></rect>
        <rect x="1.552" y="8.587" width="0.322" height="0.161"></rect>
        <rect x="26.168" y="14.617" width="0.323" height="0.16"></rect>
        <rect x="11.628" y="14.617" width="0.662" height="0.16"></rect>
        <rect x="12.951" y="14.617" width="0.661" height="0.16"></rect>
        <rect x="14.273" y="14.617" width="0.66" height="0.16"></rect>
        <rect x="18.238" y="14.617" width="0.66" height="0.16"></rect>
        <rect x="22.203" y="14.617" width="0.66" height="0.16"></rect>
        <rect x="19.561" y="14.617" width="0.66" height="0.16"></rect>
        <rect x="10.308" y="14.617" width="0.661" height="0.16"></rect>
        <rect x="16.916" y="14.617" width="0.661" height="0.16"></rect>
        <rect x="20.881" y="14.617" width="0.661" height="0.16"></rect>
        <rect x="2.376" y="14.617" width="0.662" height="0.16"></rect>
        <rect x="3.699" y="14.617" width="0.661" height="0.16"></rect>
        <rect x="8.985" y="14.617" width="0.661" height="0.16"></rect>
        <rect x="1.394" y="14.617" width="0.323" height="0.16"></rect>
        <rect x="26.168" y="21.011" width="0.323" height="0.162"></rect>
        <rect x="3.699" y="21.011" width="0.661" height="0.162"></rect>
        <rect x="14.273" y="21.011" width="0.66" height="0.162"></rect>
        <rect x="10.308" y="21.011" width="0.661" height="0.162"></rect>
        <rect x="5.021" y="21.011" width="0.661" height="0.162"></rect>
        <rect x="6.343" y="21.011" width="0.661" height="0.162"></rect>
        <rect x="7.665" y="21.011" width="0.661" height="0.162"></rect>
        <rect x="15.596" y="21.011" width="0.66" height="0.162"></rect>
        <rect x="8.986" y="21.011" width="0.661" height="0.162"></rect>
        <rect x="22.204" y="21.011" width="0.659" height="0.162"></rect>
        <rect x="23.525" y="21.011" width="0.66" height="0.162"></rect>
        <rect x="24.848" y="21.011" width="0.66" height="0.162"></rect>
        <rect x="19.561" y="21.011" width="0.662" height="0.162"></rect>
        <rect x="18.238" y="21.011" width="0.66" height="0.162"></rect>
        <rect x="20.882" y="21.011" width="0.661" height="0.162"></rect>
        <rect x="16.917" y="21.011" width="0.662" height="0.162"></rect>
        <rect x="1.394" y="21.011" width="0.323" height="0.162"></rect>
      </g>
    </g>
  </symbol>
  <symbol xmlns="http://www.w3.org/2000/svg" id="student" viewBox="0 0 64 64">
    <path d="m59.3 12.6-27-10c-.2-.1-.5-.1-.7 0l-27 10c-.3.1-.6.5-.6.9s.3.8.7.9l9.3 3.5v5.6c0 .2 0 .3.1.5.1.1.6 1.1 1.9 2.3 0 .1-.1.2-.1.3v.1c-2.8.5-5 2.9-5 5.9s2.2 5.4 5 5.9V38.8c0 .1.8 5.1 4.5 9.1-5.3 2.6-9.6 7-12.1 12.4-.1.3-.1.7.1 1 .2.3.5.5.8.5h45.4c.3 0 .7-.2.8-.5s.2-.6.1-1c-2.5-5.4-6.8-9.7-12.1-12.4 3.6-4 4.5-9 4.5-9.1V38.5c2.8-.5 5-2.9 5-5.9s-2.2-5.4-5-5.9v-.1c0-.1 0-.2-.1-.3 1.3-1.2 1.9-2.1 1.9-2.3.1-.2.1-.3.1-.5v-5.6l4-1.5v8.3c-1.2.4-2 1.5-2 2.8 0 1.7 1.3 3 3 3s3-1.3 3-3c0-1.3-.8-2.4-2-2.8v-9l3.3-1.2c.4-.1.7-.5.7-.9s-.1-.9-.5-1zM55 28.5c-.6 0-1-.4-1-1s.4-1 1-1 1 .4 1 1-.4 1-1 1zm-37-.7c1.2.8 2.6 1.6 4.4 2.2-.7.9-2.2 2.1-4.4 2.4v-4.6zm-5 4.7c0-1.9 1.3-3.4 3-3.9v7.7c-1.7-.4-3-1.9-3-3.8zm9 16.7c1.6 1.3 3.6 2.4 6.1 2.9l4.1 7.4H10.8c2.6-4.6 6.5-8.2 11.2-10.3zm8.7 3.3h2.6L32 54.7l-1.3-2.2zm22.4 7H34.6L33 56.7l2.8-4.6c2.5-.5 4.5-1.6 6.1-2.9 4.8 2.1 8.7 5.7 11.2 10.3zM46 38.4c-.2 1.1-2.3 12.1-14 12.1-11.6 0-13.8-11-14-12.1v-4c3.7-.4 5.7-2.7 6.5-3.8.9.2 1.8.4 2.8.6.5.8 3.5 4.8 8.5 5.7.7.1 1.4.2 2.1.2h.1v.5c0 .6.4 1 1 1s1-.4 1-1v-.7c2-.3 4-1.2 6-2.4v3.9zm0-6.4c-3.4 2.5-6.8 3.5-9.8 2.9-2.8-.5-4.9-2.2-6.1-3.5.6 0 1.3.1 1.9.1 6.8 0 11.2-1.8 14-3.7V32zm5 .5c0 1.9-1.3 3.4-3 3.9v-7.7c1.7.4 3 1.9 3 3.8zm-3-9.3c-.8 1.1-4.9 6.3-16 6.3s-15.2-5.2-16-6.3v-4.6l15.7 5.8c.1 0 .2.1.3.1s.2 0 .3-.1L48 18.6v4.6zm-16-.8L7.9 13.5 32 4.6l24.1 8.9L32 22.4z"></path>
    <path d="M25 34.5c-.6 0-1 .4-1 1v2c0 .6.4 1 1 1s1-.4 1-1v-2c0-.6-.4-1-1-1zm12.3 9.1c-.5-.2-1.1.1-1.3.6 0 0-.8 2.3-4.1 2.3-3.2 0-4-2.2-4.1-2.3-.2-.5-.7-.8-1.3-.6-.5.2-.8.7-.6 1.3.1.2 1.3 3.7 5.9 3.7s5.9-3.5 5.9-3.7c.4-.6.1-1.2-.4-1.3z"></path>
  </symbol>
  <symbol fill="#000000" version="1.1" id="lecture" xmlns="http://www.w3.org/2000/svg" xmlns:xlink="http://www.w3.org/1999/xlink" xml:space="preserve" viewBox="0 0 31.178 31.178">
    <g>
      <g>
        <circle cx="5.042" cy="5.721" r="3.866"></circle>
        <path d="M30.779,6.78h-9.346V5.722h-2.479V6.78h-8.877H9.446v1.275h0.631v2.806l-1.452-0.692H6.449l-1.474,1.709l-1.426-1.709
			l-3.133,0.582l-0.2,6.949h1.328l0.072,1.443h0.202v0.879v0.649v6.884H1.551L0,27.893v1.43h1.321l1.542-0.251l0.014,0.251h1.708
			v-1.593v-0.173v-6.883h0.973v6.883v0.173v1.593h1.708l0.014-0.251l1.542,0.251h1.321v-1.43L8.59,27.557H8.325v-6.883v-0.65v-0.879
			H8.57l0.316-6.4l1.191,0.539v7.355h9.136v2.343l-5.042,5.688h1.812l3.404-3.844v3.844h1.041v-3.84l3.399,3.84h1.841l-5.07-5.688
			v-2.343h10.182V8.056h0.398V6.78H30.779z M29.887,19.7h-9.291h-1.383H10.97v-6.013l3.717,1.682l-0.014-2.317l-3.703-1.765V8.056
			h18.917V19.7z"></path>
        <path d="M18.396,13.728v2.915c0,0,1.058-0.367,2.09-0.012c1.031,0.356,2.777,1.406,2.777,1.406s0.532-0.867,1.156-1.269
			c0.623-0.401,1.104-0.709,1.104-0.709v-2.254l-1.922,1.698L18.396,13.728z"></path>
        <polygon points="16.404,15.174 16.027,15.174 16.027,16.77 17.348,16.77 17.348,15.174 16.95,15.174 16.95,12.959 23.535,15.069 
			27.727,11.33 20.912,9.366 15.555,12.512 16.404,12.785 		"></polygon>
      </g>
    </g>
  </symbol>
    <symbol xmlns="http://www.w3.org/2000/svg" fill="currentColor" viewBox="0 0 16 16" id="card">
    <path d="M14.5 3a.5.5 0 0 1 .5.5v9a.5.5 0 0 1-.5.5h-13a.5.5 0 0 1-.5-.5v-9a.5.5 0 0 1 .5-.5zm-13-1A1.5 1.5 0 0 0 0 3.5v9A1.5 1.5 0 0 0 1.5 14h13a1.5 1.5 0 0 0 1.5-1.5v-9A1.5 1.5 0 0 0 14.5 2z"></path>
    <path d="M5 8a.5.5 0 0 1 .5-.5h7a.5.5 0 0 1 0 1h-7A.5.5 0 0 1 5 8m0-2.5a.5.5 0 0 1 .5-.5h7a.5.5 0 0 1 0 1h-7a.5.5 0 0 1-.5-.5m0 5a.5.5 0 0 1 .5-.5h7a.5.5 0 0 1 0 1h-7a.5.5 0 0 1-.5-.5m-1-5a.5.5 0 1 1-1 0 .5.5 0 0 1 1 0M4 8a.5.5 0 1 1-1 0 .5.5 0 0 1 1 0m0 2.5a.5.5 0 1 1-1 0 .5.5 0 0 1 1 0"></path>
  </symbol>
   <symbol xmlns="http://www.w3.org/2000/svg" id="classroom" viewBox="0 0 64 64">
    <path d="M5 60h14a1 1 0 0 0 1-1 8 8 0 0 0-16 0 1 1 0 0 0 1 1Z"></path>
    <circle cx="12" cy="45" r="5"></circle>
    <path d="M24 59a1 1 0 0 0 1 1h14a1 1 0 0 0 1-1 8 8 0 0 0-16 0Z"></path>
    <circle cx="32" cy="45" r="5"></circle>
    <path d="M52 51a8 8 0 0 0-8 8 1 1 0 0 0 1 1h14a1 1 0 0 0 1-1 8 8 0 0 0-8-8Z"></path>
    <circle cx="52" cy="45" r="5"></circle>
    <circle cx="13" cy="9" r="5"></circle>
    <path d="M5 27h3v10a1 1 0 0 0 1 1h3V28a1 1 0 0 1 2 0v10h3a1 1 0 0 0 1-1V21h7a1 1 0 0 0 1-1v-4a1 1 0 0 0-1-1H8a4 4 0 0 0-4 4v7a1 1 0 0 0 1 1Z"></path>
    <path d="M59 4H21a1 1 0 0 0-1 1v9h5a2 2 0 0 1 2 2v4a2 2 0 0 1-2 2h-5v9a1 1 0 0 0 1 1h38a1 1 0 0 0 1-1V5a1 1 0 0 0-1-1Zm-6 22H43a1 1 0 0 1 0-2h10a1 1 0 0 1 0 2Zm0-7H29a1 1 0 0 1 0-2h24a1 1 0 0 1 0 2Zm0-7H27a1 1 0 0 1 0-2h26a1 1 0 0 1 0 2Z"></path>
  </symbol>
    <symbol xmlns="http://www.w3.org/2000/svg" fill="currentColor" viewBox="0 0 16 16" id="house">
    <path d="M8.354 1.146a.5.5 0 0 0-.708 0l-6 6A.5.5 0 0 0 1.5 7.5v7a.5.5 0 0 0 .5.5h4.5a.5.5 0 0 0 .5-.5v-4h2v4a.5.5 0 0 0 .5.5H14a.5.5 0 0 0 .5-.5v-7a.5.5 0 0 0-.146-.354L13 5.793V2.5a.5.5 0 0 0-.5-.5h-1a.5.5 0 0 0-.5.5v1.293zM2.5 14V7.707l5.5-5.5 5.5 5.5V14H10v-4a.5.5 0 0 0-.5-.5h-3a.5.5 0 0 0-.5.5v4z"></path>
  </symbol>
  <symbol xmlns="http://www.w3.org/2000/svg" id="filter" viewBox="0 0 32 32">
    <path d="M2 7h.142a3.981 3.981 0 0 0 7.716 0H30a1 1 0 0 0 0-2H9.858a3.981 3.981 0 0 0-7.716 0H2a1 1 0 0 0 0 2zm4-3a2 2 0 1 1-2 2 2 2 0 0 1 2-2zm24 11h-.142a3.981 3.981 0 0 0-7.716 0H2a1 1 0 0 0 0 2h20.142a3.981 3.981 0 0 0 7.716 0H30a1 1 0 0 0 0-2zm-4 3a2 2 0 1 1 2-2 2 2 0 0 1-2 2zm4 7H19.858a3.981 3.981 0 0 0-7.716 0H2a1 1 0 0 0 0 2h10.142a3.981 3.981 0 0 0 7.716 0H30a1 1 0 0 0 0-2zm-14 3a2 2 0 1 1 2-2 2 2 0 0 1-2 2z"></path>
  </symbol>
</svg>